<svg width="41" height="40" viewBox="0 0 41 40" fill="none" xmlns="http://www.w3.org/2000/svg">
<path d="M1.56731 29.2564C0.710513 29.2564 0 28.5459 0 27.6891V12.016C0 11.1592 0.710513 10.4487 1.56731 10.4487C2.4241 10.4487 3.13462 11.1592 3.13462 12.016V27.6891C3.13462 28.5459 2.4241 29.2564 1.56731 29.2564Z" fill="#080921"/>
<path opacity="0.4" d="M10.9711 34.4808C10.1143 34.4808 9.40381 33.7703 9.40381 32.9135V6.79167C9.40381 5.93488 10.1143 5.22437 10.9711 5.22437C11.8279 5.22437 12.5384 5.93488 12.5384 6.79167V32.9135C12.5384 33.7703 11.8279 34.4808 10.9711 34.4808Z" fill="#080921"/>
<path d="M20.3749 39.7051C19.5181 39.7051 18.8076 38.9946 18.8076 38.1378V1.56731C18.8076 0.710513 19.5181 0 20.3749 0C21.2317 0 21.9422 0.710513 21.9422 1.56731V38.1378C21.9422 38.9946 21.2317 39.7051 20.3749 39.7051Z" fill="#080921"/>
<path opacity="0.4" d="M29.7787 34.4808C28.9219 34.4808 28.2114 33.7703 28.2114 32.9135V6.79167C28.2114 5.93488 28.9219 5.22437 29.7787 5.22437C30.6355 5.22437 31.346 5.93488 31.346 6.79167V32.9135C31.346 33.7703 30.6355 34.4808 29.7787 34.4808Z" fill="#080921"/>
<path d="M39.1828 29.2564C38.326 29.2564 37.6155 28.5459 37.6155 27.6891V12.016C37.6155 11.1592 38.326 10.4487 39.1828 10.4487C40.0396 10.4487 40.7501 11.1592 40.7501 12.016V27.6891C40.7501 28.5459 40.0396 29.2564 39.1828 29.2564Z" fill="#080921"/>
</svg>
