<svg width="21" height="20" viewBox="0 0 21 20" fill="none" xmlns="http://www.w3.org/2000/svg">
<path opacity="0.4" d="M19.2501 7.14516C18.7601 6.36516 18.2001 5.66516 17.6201 5.03516L13.8501 8.80516C13.9701 9.17516 14.0401 9.57516 14.0401 9.99516C14.0401 12.2352 12.2301 14.0352 10.0001 14.0352C9.5801 14.0352 9.1801 13.9652 8.8101 13.8452L5.3501 17.3052C6.8101 18.1252 8.3901 18.5552 10.0001 18.5552C11.7801 18.5552 13.5101 18.0352 15.0901 17.0652C16.6701 16.0852 18.0901 14.6552 19.2501 12.8352C20.2501 11.2752 20.2501 8.71516 19.2501 7.14516Z" fill="white"/>
<path d="M12.0201 7.97476L7.98014 12.0148C7.47014 11.4948 7.14014 10.7748 7.14014 9.99477C7.14014 8.42477 8.42014 7.13477 10.0001 7.13477C10.7801 7.13477 11.5001 7.46476 12.0201 7.97476Z" fill="white"/>
<path opacity="0.4" d="M16.25 3.7448L12.86 7.1348C12.13 6.3948 11.12 5.9548 10 5.9548C7.76 5.9548 5.96 7.7648 5.96 9.9948C5.96 11.1148 6.41 12.1248 7.14 12.8548L3.76 16.2448H3.75C2.64 15.3448 1.62 14.1948 0.75 12.8348C-0.25 11.2648 -0.25 8.7148 0.75 7.1448C1.91 5.3248 3.33 3.8948 4.91 2.9148C6.49 1.9548 8.22 1.4248 10 1.4248C12.23 1.4248 14.39 2.2448 16.25 3.7448Z" fill="white"/>
<path d="M12.8601 9.9952C12.8601 11.5652 11.5801 12.8552 10.0001 12.8552C9.94008 12.8552 9.89008 12.8552 9.83008 12.8352L12.8401 9.8252C12.8601 9.8852 12.8601 9.9352 12.8601 9.9952Z" fill="white"/>
<path d="M19.7699 0.225C19.4699 -0.075 18.9799 -0.075 18.6799 0.225L0.229883 18.685C-0.0701172 18.985 -0.0701172 19.475 0.229883 19.775C0.379883 19.915 0.569883 19.995 0.769883 19.995C0.969883 19.995 1.15988 19.915 1.30988 19.765L19.7699 1.305C20.0799 1.005 20.0799 0.525 19.7699 0.225Z" fill="white"/>
</svg>
