<svg width="185" height="19" viewBox="0 0 185 19" fill="none" xmlns="http://www.w3.org/2000/svg">
<path d="M0 12.6667H4.29924C4.39922 13.2838 4.67418 13.8278 5.1241 14.2987C5.59068 14.7534 6.20724 15.1107 6.97377 15.3705C7.75697 15.6141 8.65681 15.7359 9.6733 15.7359C11.1564 15.7359 12.3228 15.5329 13.1727 15.1269C14.0392 14.7047 14.4724 14.1201 14.4724 13.3731C14.4724 12.7885 14.2225 12.3419 13.7226 12.0333C13.2393 11.7085 12.3312 11.4731 10.9981 11.3269L7.22373 10.9128C4.79082 10.653 3.02447 10.1009 1.92466 9.25641C0.841518 8.39573 0.299947 7.20214 0.299947 5.67564C0.299947 4.47393 0.658217 3.45086 1.37476 2.60641C2.10796 1.76197 3.13278 1.12051 4.44922 0.682051C5.76565 0.22735 7.31538 0 9.0984 0C10.8314 0 12.3728 0.25171 13.7226 0.755129C15.0723 1.24231 16.1472 1.93248 16.947 2.82564C17.7469 3.70256 18.1801 4.73376 18.2468 5.91923H13.9475C13.8642 5.38333 13.6143 4.92051 13.1977 4.53077C12.7977 4.12479 12.2395 3.81624 11.523 3.60513C10.8064 3.37778 9.96491 3.2641 8.99841 3.2641C7.64865 3.2641 6.57384 3.45897 5.77398 3.84872C4.97412 4.23846 4.57419 4.7906 4.57419 5.50513C4.57419 6.05727 4.80749 6.48761 5.27407 6.79615C5.75732 7.08846 6.59884 7.30769 7.79862 7.45385L11.7229 7.91667C13.456 8.0953 14.8307 8.38761 15.8472 8.79359C16.8804 9.18333 17.6136 9.71111 18.0468 10.3769C18.4967 11.0427 18.7217 11.8872 18.7217 12.9103C18.7217 14.1282 18.3384 15.2 17.5719 16.1256C16.822 17.035 15.7639 17.7415 14.3975 18.2449C13.031 18.7483 11.4313 19 9.59831 19C7.73197 19 6.09059 18.7402 4.67418 18.2205C3.25776 17.6846 2.14129 16.9457 1.32477 16.0038C0.508244 15.0457 0.0666549 13.9333 0 12.6667Z" fill="white"/>
<path d="M26.8433 2.21667H31.0676V18.6346H26.8433V2.21667ZM19.3696 0.365384H38.5163V4.01923H19.3696V0.365384Z" fill="white"/>
<path d="M40.811 14.7859V11.4244H53.8087V14.7859H40.811ZM50.1343 0.365384L58.9078 18.6346H54.3836L46.7099 2.04615H48.1097L40.436 18.6346H35.9118L44.6853 0.365384H50.1343Z" fill="white"/>
<path d="M63.8753 8.47692H71.099C72.0488 8.47692 72.7987 8.26581 73.3486 7.84359C73.9152 7.40513 74.1984 6.80427 74.1984 6.04103C74.1984 5.27778 73.9152 4.68504 73.3486 4.26282C72.7987 3.8406 72.0488 3.62949 71.099 3.62949H63.2504L65.175 1.51026V18.6346H60.9258V0.365384H71.5989C72.9653 0.365384 74.1651 0.608974 75.1983 1.09615C76.2314 1.56709 77.0396 2.22479 77.6228 3.06923C78.2061 3.91368 78.4977 4.90427 78.4977 6.04103C78.4977 7.16154 78.2061 8.14402 77.6228 8.98846C77.0396 9.83291 76.2314 10.4987 75.1983 10.9859C74.1651 11.4568 72.9653 11.6923 71.5989 11.6923H63.8753V8.47692ZM67.1247 10.0846H71.9738L79.0476 18.6346H74.0735L67.1247 10.0846Z" fill="white"/>
<path d="M87.0378 2.21667H91.262V18.6346H87.0378V2.21667ZM79.5641 0.365384H98.7107V4.01923H79.5641V0.365384Z" fill="white"/>
<path d="M124.017 15.9064L122.542 16.1256V0.365384H126.667V18.6346H121.293L109.295 2.87436L110.745 2.65513V18.6346H106.645V0.365384H112.144L124.017 15.9064Z" fill="white"/>
<path d="M140.517 19C138.334 19 136.418 18.6021 134.768 17.8064C133.135 17.0107 131.86 15.9064 130.943 14.4936C130.027 13.0645 129.569 11.4 129.569 9.5C129.569 7.6 130.027 5.94359 130.943 4.53077C131.86 3.10171 133.135 1.98932 134.768 1.19359C136.418 0.397863 138.334 0 140.517 0C142.7 0 144.608 0.397863 146.241 1.19359C147.891 1.98932 149.174 3.10171 150.09 4.53077C151.007 5.94359 151.465 7.6 151.465 9.5C151.465 11.4 151.007 13.0645 150.09 14.4936C149.174 15.9064 147.891 17.0107 146.241 17.8064C144.608 18.6021 142.7 19 140.517 19ZM140.517 15.3218C141.883 15.3218 143.058 15.0863 144.041 14.6154C145.041 14.1444 145.808 13.4705 146.341 12.5936C146.891 11.7167 147.166 10.6855 147.166 9.5C147.166 8.31453 146.891 7.28333 146.341 6.40641C145.808 5.52949 145.041 4.85556 144.041 4.38462C143.058 3.91368 141.883 3.67821 140.517 3.67821C139.167 3.67821 137.992 3.91368 136.992 4.38462C135.993 4.85556 135.218 5.52949 134.668 6.40641C134.135 7.28333 133.868 8.31453 133.868 9.5C133.868 10.6855 134.135 11.7167 134.668 12.5936C135.218 13.4705 135.993 14.1444 136.992 14.6154C137.992 15.0863 139.167 15.3218 140.517 15.3218Z" fill="white"/>
<path d="M176.776 16.9538H175.327L180.551 0.365384H185L178.976 18.6346H173.552L167.653 2.46026H169.503L163.604 18.6346H158.18L152.156 0.365384H156.655L161.829 16.9538L160.429 16.9295L166.328 0.365384H170.852L176.776 16.9538Z" fill="white"/>
</svg>
