<svg width="43" height="43" viewBox="0 0 43 43" fill="none" xmlns="http://www.w3.org/2000/svg">
<path opacity="0.4" d="M21.5 32.25V37.367C21.5 41.3875 19.8875 43 15.8455 43H5.633C1.6125 43 0 41.3875 0 37.367V27.1545C0 23.1125 1.6125 21.5 5.633 21.5H10.75V26.5955C10.75 30.6375 12.3625 32.25 16.383 32.25H21.5Z" fill="white"/>
<path opacity="0.6" d="M32.25 21.5V26.5955C32.25 30.6375 30.6375 32.25 26.5955 32.25H16.383C12.3625 32.25 10.75 30.6375 10.75 26.5955V16.383C10.75 12.3625 12.3625 10.75 16.383 10.75H21.5V15.8455C21.5 19.8875 23.1125 21.5 27.133 21.5H32.25Z" fill="white"/>
<path d="M43 5.633V15.8455C43 19.8875 41.3875 21.5 37.3455 21.5H27.133C23.1125 21.5 21.5 19.8875 21.5 15.8455V5.633C21.5 1.6125 23.1125 0 27.133 0H37.3455C41.3875 0 43 1.6125 43 5.633Z" fill="white"/>
</svg>
