<svg width="43" height="43" viewBox="0 0 43 43" fill="none" xmlns="http://www.w3.org/2000/svg">
<path d="M43 13.975C43 21.6935 36.7435 27.95 29.025 27.95C28.6595 27.95 28.2726 27.9285 27.9071 27.907C27.3696 21.0915 21.9085 15.6305 15.093 15.093C15.0715 14.7275 15.05 14.3405 15.05 13.975C15.05 6.2565 21.3065 0 29.025 0C36.7435 0 43 6.2565 43 13.975Z" fill="white"/>
<path opacity="0.4" d="M27.95 29.025C27.95 36.7435 21.6935 43 13.975 43C6.2565 43 0 36.7435 0 29.025C0 21.3065 6.2565 15.05 13.975 15.05C14.3405 15.05 14.7275 15.0716 15.093 15.0931C21.9085 15.6306 27.3695 21.0915 27.907 27.907C27.9285 28.2725 27.95 28.6595 27.95 29.025Z" fill="white"/>
<path d="M12.0831 27.133L13.9751 23.65L15.8671 27.133L19.3501 29.025L15.8671 30.917L13.9751 34.4L12.0831 30.917L8.6001 29.025L12.0831 27.133Z" fill="white"/>
</svg>
