<svg width="38" height="45" viewBox="0 0 38 45" fill="none" xmlns="http://www.w3.org/2000/svg">
<path opacity="0.4" d="M16.2692 0.343106L4.19355 4.86599C1.88819 5.74422 0 8.46673 0 10.9477V28.7319C0 30.5103 1.16365 32.8596 2.59078 33.9134L14.6664 42.9372C16.7961 44.54 20.2871 44.54 22.4168 42.9372L34.4925 33.9134C35.9196 32.8376 37.0833 30.5103 37.0833 28.7319V10.9477C37.0833 8.48869 35.1951 5.74422 32.8897 4.88795L20.814 0.365062C19.5845 -0.117964 17.5207 -0.117964 16.2692 0.343106Z" fill="white"/>
<path d="M15.6104 27.0653C15.1932 27.0653 14.7761 26.9116 14.4467 26.5822L10.9119 23.0474C10.2751 22.4107 10.2751 21.3568 10.9119 20.7201C11.5486 20.0833 12.6025 20.0833 13.2392 20.7201L15.6104 23.0913L23.8877 14.814C24.5244 14.1772 25.5783 14.1772 26.215 14.814C26.8517 15.4507 26.8517 16.5046 26.215 17.1413L16.774 26.5822C16.4447 26.9116 16.0276 27.0653 15.6104 27.0653Z" fill="white"/>
</svg>
