<svg width="278" height="131" viewBox="0 0 278 131" fill="none" xmlns="http://www.w3.org/2000/svg">
<path d="M150.307 8.78267L147.851 6.32661C143.722 10.1571 137.302 10.1565 133.173 6.32661L130.717 8.78293C136.202 13.9648 144.823 13.9645 150.307 8.78267Z" fill="#FF323A"/>
<path d="M140.512 4.88525C141.164 4.88525 141.778 4.63112 142.239 4.16961C142.701 3.70811 142.954 3.09478 142.954 2.44233C142.954 1.78988 142.701 1.17627 142.239 0.715044C141.778 0.253541 141.164 -0.000597954 140.512 -0.000597954C139.859 -0.000597954 139.246 0.253541 138.784 0.715044C138.323 1.17627 138.069 1.78988 138.069 2.44233C138.069 3.09478 138.323 3.70811 138.784 4.16961C139.246 4.63112 139.859 4.88525 140.512 4.88525Z" fill="#FF323A"/>
<path d="M165.585 24.0142C160.404 29.4992 160.404 38.1205 165.585 43.6052L168.042 41.1489C164.212 37.0197 164.212 30.5997 168.042 26.4708L165.585 24.0142Z" fill="#FF323A"/>
<path d="M173.654 32.0825C173.193 31.621 172.579 31.3668 171.927 31.3668C171.274 31.3668 170.661 31.621 170.199 32.0825C169.247 33.035 169.247 34.5848 170.199 35.5373C170.661 35.9985 171.274 36.2527 171.927 36.2527C172.579 36.2527 173.193 35.9985 173.654 35.5373C174.606 34.5848 174.606 33.035 173.654 32.0825Z" fill="#FF323A"/>
<path d="M113.005 26.4937C116.836 30.6229 116.836 37.0429 113.005 41.1721L115.462 43.6284C117.971 40.9735 119.348 37.511 119.348 33.8329C119.348 30.1546 117.971 26.6923 115.462 24.0374L113.005 26.4937Z" fill="#FF323A"/>
<path d="M109.121 31.3906C108.496 31.3906 107.87 31.6289 107.394 32.1052C106.442 33.0577 106.442 34.6075 107.394 35.56C108.347 36.5126 109.896 36.5126 110.849 35.56C111.801 34.6075 111.801 33.0577 110.849 32.1052C110.372 31.6289 109.747 31.3906 109.121 31.3906Z" fill="#FF323A"/>
<path d="M130.694 58.9069L133.15 61.3635C137.279 57.5328 143.699 57.5336 147.828 61.3633L150.284 58.9069C144.8 53.7256 136.179 53.7251 130.694 58.9069Z" fill="#FF323A"/>
<path d="M140.489 62.8055C139.863 62.8055 139.237 63.0435 138.761 63.52C137.809 64.4723 137.809 66.0223 138.761 66.9746C139.714 67.9274 141.263 67.9274 142.216 66.9746C143.168 66.0223 143.168 64.4723 142.216 63.52C141.74 63.0435 141.114 62.8055 140.489 62.8055Z" fill="#FF323A"/>
<path d="M140.49 40.3478C138.252 40.3478 136.055 40.6008 133.929 41.09L133.927 41.0954L133.683 41.1542C128.803 42.3265 124.295 44.7675 120.641 48.2128C120.531 48.3164 120.421 48.4193 120.312 48.5249L125.803 54.0159C129.895 50.0776 135.192 48.1088 140.49 48.1088C144.482 48.1088 148.474 49.2282 151.95 51.4652C149.619 48.297 147.995 44.7675 147.078 41.0963C144.943 40.6033 142.737 40.3478 140.49 40.3478Z" fill="#FF323A"/>
<path d="M158.072 22.4474C154.916 24.7558 151.405 26.364 147.753 27.2736C145.607 36.562 148.082 46.7107 155.181 54.011L160.672 48.52C153.786 41.3666 152.92 30.5282 158.072 22.4474Z" fill="#FF323A"/>
<path d="M129.032 16.2118C131.356 19.3529 133.011 22.875 133.942 26.59C143.232 28.7397 153.386 26.2659 160.689 19.165L155.198 13.674C148.017 20.5861 137.123 21.4309 129.032 16.2118Z" fill="#FF323A"/>
<path d="M122.913 45.2559C126.003 42.9968 129.516 41.3463 133.244 40.4165C135.483 30.7252 132.716 20.7812 125.813 13.6852L120.322 19.1764C124.036 23.0348 126.129 28.0976 126.224 33.4784C126.299 37.7019 125.14 41.7731 122.913 45.2559Z" fill="#FF323A"/>
<path d="M40.5855 115.575C40.2382 118.635 39.1805 121.332 37.4125 123.666C35.6445 125.968 33.3082 127.766 30.4036 129.06C27.499 130.353 24.1997 131 20.5059 131C16.4015 131 12.8023 130.227 9.70831 128.681C6.64585 127.135 4.26219 124.975 2.55731 122.199C0.852437 119.423 0 116.19 0 112.5C0 108.809 0.852437 105.576 2.55731 102.8C4.26219 100.024 6.64585 97.8635 9.70831 96.3179C12.8023 94.7723 16.4015 93.9995 20.5059 93.9995C24.1997 93.9995 27.499 94.6461 30.4036 95.9394C33.3082 97.2327 35.6445 99.0306 37.4125 101.333C39.1805 103.636 40.2382 106.333 40.5855 109.424H31.5875C31.2718 107.815 30.6246 106.443 29.6459 105.308C28.6987 104.172 27.4359 103.305 25.8573 102.705C24.3103 102.075 22.5107 101.759 20.4585 101.759C18.0906 101.759 16.0542 102.201 14.3494 103.084C12.6445 103.936 11.3343 105.166 10.4187 106.774C9.5031 108.383 9.04531 110.291 9.04531 112.5C9.04531 114.708 9.5031 116.616 10.4187 118.225C11.3343 119.833 12.6445 121.079 14.3494 121.962C16.0542 122.814 18.0906 123.24 20.4585 123.24C22.5107 123.24 24.3103 122.94 25.8573 122.341C27.4359 121.742 28.6987 120.874 29.6459 119.739C30.6246 118.603 31.2718 117.215 31.5875 115.575H40.5855Z" fill="white"/>
<path d="M51.7956 110.37H65.1031C66.7764 110.37 68.1024 109.992 69.0811 109.235C70.0598 108.446 70.5492 107.358 70.5492 105.97C70.5492 104.582 70.0598 103.51 69.0811 102.753C68.1024 101.964 66.7764 101.57 65.1031 101.57H50.5169L54.5423 97.1696V130.242H45.5917V94.7565H66.287C68.939 94.7565 71.2595 95.2297 73.2486 96.176C75.2376 97.1223 76.7846 98.4313 77.8896 100.103C78.9946 101.775 79.5471 103.731 79.5471 105.97C79.5471 108.178 78.9946 110.118 77.8896 111.79C76.7846 113.462 75.2376 114.771 73.2486 115.717C71.2595 116.663 68.939 117.136 66.287 117.136H51.7956V110.37ZM57.5258 113.635H67.613L80.6837 130.242H70.3124L57.5258 113.635Z" fill="white"/>
<path d="M96.1364 130.242V113.067H105.087V130.242H96.1364ZM79.4665 94.7565H89.3642L102.624 111.601H98.5042L111.764 94.7565H121.662L103.477 117.846L97.6992 117.941L79.4665 94.7565Z" fill="white"/>
<path d="M145.254 94.7565C148.158 94.7565 150.652 95.2612 152.736 96.2706C154.851 97.2484 156.462 98.6363 157.567 100.434C158.703 102.232 159.271 104.33 159.271 106.727C159.271 109.124 158.703 111.222 157.567 113.02C156.462 114.818 154.851 116.222 152.736 117.231C150.652 118.209 148.158 118.698 145.254 118.698H129.72V111.459H144.78C146.485 111.459 147.827 111.049 148.805 110.228C149.784 109.377 150.274 108.21 150.274 106.727C150.274 105.245 149.784 104.093 148.805 103.273C147.827 102.422 146.485 101.996 144.78 101.996H130.525L134.551 97.832V130.242H125.6V94.7565H145.254Z" fill="white"/>
<path d="M174.562 98.731H183.513V130.242H174.562V98.731ZM160.734 94.7565H197.341V102.658H160.734V94.7565Z" fill="white"/>
<path d="M202.197 123.098V115.859H226.729V123.098H202.197ZM220.477 94.7565L236.863 130.242H227.344L213.279 98.4944H216.026L202.008 130.242H192.442L208.875 94.7565H220.477Z" fill="white"/>
<path d="M246.626 130.242V113.067H255.577V130.242H246.626ZM229.956 94.7565H239.854L253.114 111.601H248.994L262.254 94.7565H272.152L253.967 117.846L248.189 117.941L229.956 94.7565Z" fill="white"/>
<path d="M272.933 130.716C271.986 130.716 271.117 130.495 270.328 130.053C269.57 129.58 268.97 128.965 268.528 128.208C268.086 127.451 267.865 126.599 267.865 125.653C267.865 124.707 268.086 123.855 268.528 123.098C268.97 122.341 269.57 121.742 270.328 121.3C271.117 120.827 271.986 120.59 272.933 120.59C273.88 120.59 274.732 120.827 275.49 121.3C276.248 121.742 276.848 122.341 277.29 123.098C277.763 123.855 278 124.707 278 125.653C278 126.599 277.763 127.451 277.29 128.208C276.848 128.965 276.248 129.58 275.49 130.053C274.732 130.495 273.88 130.716 272.933 130.716Z" fill="white"/>
</svg>
