<svg width="127" height="23" viewBox="0 0 127 23" fill="none" xmlns="http://www.w3.org/2000/svg">
<path d="M14.824 2.98447L13.9895 2.14993C12.5863 3.45146 10.4049 3.45128 9.00204 2.14993L8.16742 2.98456C10.0311 4.74528 12.9606 4.74519 14.824 2.98447Z" fill="#FF323A"/>
<path d="M11.4955 1.66016C11.7172 1.66016 11.9257 1.5738 12.0824 1.41699C12.2392 1.26018 12.3255 1.05178 12.3255 0.830085C12.3255 0.608392 12.2392 0.399896 12.0824 0.243177C11.9257 0.086365 11.7172 1.22786e-05 11.4955 1.22786e-05C11.2738 1.22786e-05 11.0653 0.086365 10.9085 0.243177C10.7518 0.399896 10.6654 0.608392 10.6654 0.830085C10.6654 1.05178 10.7518 1.26018 10.9085 1.41699C11.0653 1.5738 11.2738 1.66016 11.4955 1.66016Z" fill="#FF323A"/>
<path d="M20.0155 8.15998C18.2549 10.0237 18.2549 12.9531 20.0155 14.8167L20.8502 13.9821C19.5487 12.5791 19.5487 10.3976 20.8502 8.99471L20.0155 8.15998Z" fill="#FF323A"/>
<path d="M22.7567 10.9015C22.6 10.7447 22.3914 10.6583 22.1698 10.6583C21.948 10.6583 21.7396 10.7447 21.5828 10.9015C21.2593 11.2252 21.2593 11.7517 21.5828 12.0754C21.7396 12.2321 21.948 12.3185 22.1698 12.3185C22.3914 12.3185 22.6 12.2321 22.7567 12.0754C23.0804 11.7517 23.0804 11.2252 22.7567 10.9015Z" fill="#FF323A"/>
<path d="M2.14948 9.00224C3.45091 10.4053 3.45091 12.5867 2.14948 13.9897L2.9841 14.8244C3.83676 13.9223 4.3046 12.7457 4.3046 11.496C4.3046 10.2461 3.83676 9.06973 2.9841 8.16761L2.14948 9.00224Z" fill="#FF323A"/>
<path d="M0.829677 10.6663C0.617 10.6663 0.404509 10.7473 0.242678 10.9091C-0.0808926 11.2328 -0.0808926 11.7593 0.242678 12.083C0.566434 12.4067 1.09292 12.4067 1.41658 12.083C1.74016 11.7593 1.74016 11.2328 1.41658 10.9091C1.25475 10.7473 1.04226 10.6663 0.829677 10.6663Z" fill="#FF323A"/>
<path d="M8.15955 20.0158L8.99417 20.8506C10.3972 19.5489 12.5786 19.5492 13.9816 20.8505L14.8161 20.0158C12.9526 18.2553 10.0233 18.2551 8.15955 20.0158Z" fill="#FF323A"/>
<path d="M11.4879 21.3406C11.2754 21.3406 11.0628 21.4215 10.9009 21.5834C10.5774 21.907 10.5774 22.4336 10.9009 22.7572C11.2247 23.081 11.7512 23.081 12.0748 22.7572C12.3985 22.4336 12.3985 21.907 12.0748 21.5834C11.913 21.4215 11.7005 21.3406 11.4879 21.3406Z" fill="#FF323A"/>
<path d="M11.4881 13.7098C10.7278 13.7098 9.98123 13.7958 9.2587 13.962L9.25824 13.9638L9.17523 13.9838C7.51713 14.3821 5.98545 15.2115 4.74378 16.3822C4.7065 16.4174 4.66895 16.4524 4.63214 16.4882L6.4979 18.354C7.8882 17.0158 9.68806 16.3469 11.4882 16.3469C12.8447 16.3469 14.201 16.7272 15.3822 17.4873C14.5899 16.4108 14.0383 15.2115 13.7266 13.9641C13.0013 13.7966 12.2515 13.7098 11.4881 13.7098Z" fill="#FF323A"/>
<path d="M17.4624 7.62747C16.39 8.41181 15.1967 8.95828 13.956 9.26735C13.2269 12.4234 14.0679 15.8718 16.4798 18.3523L18.3455 16.4866C16.006 14.0559 15.7117 10.3732 17.4624 7.62747Z" fill="#FF323A"/>
<path d="M7.59503 5.50871C8.38448 6.57599 8.94694 7.77277 9.26317 9.03507C12.42 9.7655 15.8701 8.92492 18.3515 6.51214L16.4857 4.64638C14.0457 6.99503 10.3441 7.28207 7.59503 5.50871Z" fill="#FF323A"/>
<path d="M5.51622 15.3774C6.56622 14.6098 7.75965 14.049 9.02633 13.733C9.78743 10.4401 8.8472 7.06122 6.50162 4.65011L4.63586 6.51596C5.8978 7.82697 6.6088 9.54726 6.64114 11.3756C6.66652 12.8107 6.27277 14.194 5.51622 15.3774Z" fill="#FF323A"/>
<path d="M45.336 13.04C45.2187 14.0747 44.8613 14.9867 44.264 15.776C43.6667 16.5547 42.8773 17.1627 41.896 17.6C40.9147 18.0374 39.8 18.256 38.552 18.256C37.1653 18.256 35.9493 17.9947 34.904 17.472C33.8693 16.9494 33.064 16.2187 32.488 15.28C31.912 14.3414 31.624 13.248 31.624 12C31.624 10.752 31.912 9.6587 32.488 8.72003C33.064 7.78136 33.8693 7.0507 34.904 6.52803C35.9493 6.00536 37.1653 5.74403 38.552 5.74403C39.8 5.74403 40.9147 5.9627 41.896 6.40003C42.8773 6.83736 43.6667 7.44536 44.264 8.22403C44.8613 9.0027 45.2187 9.9147 45.336 10.96H42.296C42.1893 10.416 41.9707 9.95203 41.64 9.56803C41.32 9.18403 40.8933 8.8907 40.36 8.68803C39.8373 8.4747 39.2293 8.36803 38.536 8.36803C37.736 8.36803 37.048 8.51736 36.472 8.81603C35.896 9.10403 35.4533 9.52003 35.144 10.064C34.8347 10.608 34.68 11.2534 34.68 12C34.68 12.7467 34.8347 13.392 35.144 13.936C35.4533 14.48 35.896 14.9014 36.472 15.2C37.048 15.488 37.736 15.632 38.536 15.632C39.2293 15.632 39.8373 15.5307 40.36 15.328C40.8933 15.1254 41.32 14.832 41.64 14.448C41.9707 14.064 42.1893 13.5947 42.296 13.04H45.336ZM49.1234 11.28H53.6194C54.1847 11.28 54.6327 11.152 54.9634 10.896C55.294 10.6294 55.4594 10.2614 55.4594 9.79203C55.4594 9.3227 55.294 8.96003 54.9634 8.70403C54.6327 8.43736 54.1847 8.30403 53.6194 8.30403H48.6914L50.0514 6.81603V18H47.0274V6.00003H54.0194C54.9154 6.00003 55.6994 6.16003 56.3714 6.48003C57.0434 6.80003 57.566 7.2427 57.9394 7.80803C58.3127 8.37336 58.4994 9.0347 58.4994 9.79203C58.4994 10.5387 58.3127 11.1947 57.9394 11.76C57.566 12.3254 57.0434 12.768 56.3714 13.088C55.6994 13.408 54.9154 13.568 54.0194 13.568H49.1234V11.28ZM51.0594 12.384H54.4674L58.8834 18H55.3794L51.0594 12.384ZM64.1041 18V12.192H67.1281V18H64.1041ZM58.4721 6.00003H61.8161L66.2961 11.696H64.9041L69.3841 6.00003H72.7281L66.5841 13.808L64.6321 13.84L58.4721 6.00003ZM80.6986 6.00003C81.68 6.00003 82.5226 6.1707 83.2266 6.51203C83.9413 6.8427 84.4853 7.31203 84.8586 7.92003C85.2426 8.52803 85.4346 9.23736 85.4346 10.048C85.4346 10.8587 85.2426 11.568 84.8586 12.176C84.4853 12.784 83.9413 13.2587 83.2266 13.6C82.5226 13.9307 81.68 14.096 80.6986 14.096H75.4506V11.648H80.5386C81.1146 11.648 81.568 11.5094 81.8986 11.232C82.2293 10.944 82.3946 10.5494 82.3946 10.048C82.3946 9.5467 82.2293 9.15736 81.8986 8.88003C81.568 8.59203 81.1146 8.44803 80.5386 8.44803H75.7226L77.0826 7.04003V18H74.0586V6.00003H80.6986ZM90.6006 7.34403H93.6246V18H90.6006V7.34403ZM85.9286 6.00003H98.2966V8.67203H85.9286V6.00003ZM99.9374 15.584V13.136H108.225V15.584H99.9374ZM106.113 6.00003L111.649 18H108.433L103.681 7.26403H104.609L99.8734 18H96.6414L102.193 6.00003H106.113ZM114.948 18V12.192H117.972V18H114.948ZM109.316 6.00003H112.66L117.14 11.696H115.748L120.228 6.00003H123.572L117.428 13.808L115.476 13.84L109.316 6.00003ZM123.836 18.16C123.516 18.16 123.222 18.0854 122.956 17.936C122.7 17.776 122.497 17.568 122.348 17.312C122.198 17.056 122.124 16.768 122.124 16.448C122.124 16.128 122.198 15.84 122.348 15.584C122.497 15.328 122.7 15.1254 122.956 14.976C123.222 14.816 123.516 14.736 123.836 14.736C124.156 14.736 124.444 14.816 124.7 14.976C124.956 15.1254 125.158 15.328 125.308 15.584C125.468 15.84 125.548 16.128 125.548 16.448C125.548 16.768 125.468 17.056 125.308 17.312C125.158 17.568 124.956 17.776 124.7 17.936C124.444 18.0854 124.156 18.16 123.836 18.16Z" fill="white"/>
</svg>
